<?xml version="1.0" encoding="UTF-8" standalone="no"?>
<!DOCTYPE svg PUBLIC "-//W3C//DTD SVG 1.1//EN" "http://www.w3.org/Graphics/SVG/1.1/DTD/svg11.dtd">
<svg width="100%" height="100%" viewBox="0 0 200 77" version="1.1" xmlns="http://www.w3.org/2000/svg" xmlns:xlink="http://www.w3.org/1999/xlink" xml:space="preserve" xmlns:serif="http://www.serif.com/" style="fill-rule:evenodd;clip-rule:evenodd;stroke-linejoin:round;stroke-miterlimit:2;">
    <g transform="matrix(1,0,0,1,-1592,-3399)">
        <g id="Artboard7" transform="matrix(1,0,0,1,-90.6538,180.458)">
            <rect x="1429.81" y="2694.8" width="1020.36" height="655.677" style="fill:none;"/>
            <g transform="matrix(0.304381,0,0,0.304381,1265.15,2662.62)">
                <path d="M1609.23,1980.73C1605.54,1985.03 1601.55,1988.94 1597.3,1992.47C1599.31,2000.37 1600.38,2008.63 1600.38,2017.15C1600.38,2029.54 1594.68,2047.51 1583.28,2065.7C1581.24,2068.94 1578.03,2071.27 1574.31,2072.21C1553.49,2077.43 1534.64,2077.3 1522.86,2073.47C1514.76,2070.84 1507.23,2067.27 1500.34,2062.92C1493.45,2067.27 1485.92,2070.84 1477.82,2073.47C1466.03,2077.3 1447.18,2077.43 1426.36,2072.21C1422.65,2071.27 1419.43,2068.94 1417.4,2065.7C1405.99,2047.51 1400.3,2029.54 1400.3,2017.15C1400.3,2008.63 1401.36,2000.37 1403.37,1992.47C1397.11,1987.26 1391.38,1981.2 1386.38,1974.31C1379.09,1964.29 1373.14,1946.4 1371.68,1924.99C1371.42,1921.16 1372.64,1917.39 1375.1,1914.45C1388.87,1897.98 1404.2,1887.01 1415.99,1883.18C1424.09,1880.55 1432.28,1879.01 1440.41,1878.48C1443.42,1870.91 1447.42,1863.6 1452.43,1856.71C1459.71,1846.68 1474.88,1835.49 1494.8,1827.49C1498.35,1826.06 1502.32,1826.06 1505.88,1827.49C1525.79,1835.49 1540.96,1846.68 1548.25,1856.71C1553.25,1863.6 1557.25,1870.91 1560.27,1878.48C1568.39,1879.01 1576.59,1880.55 1584.69,1883.18C1596.47,1887.01 1611.8,1897.98 1625.57,1914.45C1628.03,1917.39 1629.26,1921.16 1629,1924.99C1628.54,1931.63 1627.66,1937.93 1626.43,1943.77L1639.99,1943.77C1645.46,1943.77 1649.89,1948.2 1649.89,1953.67L1649.89,1977.04L1674.38,1947.37C1676.26,1945.09 1679.06,1943.77 1682.01,1943.77L1707.47,1943.77C1711.33,1943.77 1714.83,1946.01 1716.45,1949.51C1718.08,1953.01 1717.52,1957.13 1715.02,1960.07L1674.38,2008.01L1694.8,2031.3C1694.5,2028.87 1694.35,2026.35 1694.35,2023.76C1694.35,2012.92 1696.6,2003.5 1700.89,1995.48C1705.36,1987.11 1711.54,1980.64 1719.39,1976.01C1727.14,1971.44 1736.04,1969.08 1746.12,1969.08C1756.99,1969.08 1766.2,1971.78 1773.81,1976.9C1778.68,1980.17 1782.78,1984.27 1786.07,1989.22L1786.07,1981.28C1786.07,1975.81 1790.5,1971.38 1795.97,1971.38L1814.37,1971.38C1817.37,1971.38 1820.05,1972.71 1821.87,1974.81C1823.5,1974.05 1825.21,1973.41 1827,1972.89C1830.02,1972 1833.14,1971.44 1836.37,1971.21C1839.51,1970.99 1871.42,1971.38 1871.42,1971.38C1874.42,1971.38 1877.1,1972.71 1878.92,1974.81C1880.55,1974.05 1882.26,1973.41 1884.05,1972.89C1887.08,1972 1890.2,1971.44 1893.42,1971.21C1896.22,1971.01 1899.03,1971.05 1901.83,1971.34C1901.75,1970.83 1901.71,1970.31 1901.71,1969.78L1901.71,1951.37C1901.71,1945.9 1906.14,1941.47 1911.61,1941.47L1932.47,1941.47C1937.93,1941.47 1942.37,1945.9 1942.37,1951.37L1942.37,1989.73C1945.18,1985.01 1948.91,1980.92 1953.55,1977.47C1960.8,1972.09 1970.58,1969.08 1983.08,1969.08C1991.76,1969.08 1999.47,1970.48 2006.21,1973.15C2014.12,1976.28 2020.12,1981.68 2024.19,1989.37C2026.47,1993.65 2027.78,1997.94 2028.21,2002.22C2028.54,2005.59 2028.72,2009.34 2028.72,2013.49L2028.72,2064.1C2028.72,2069.57 2024.28,2074 2018.82,2074L2000.56,2074C1998.15,2074 1995.93,2073.13 1994.22,2071.7C1988.39,2074.66 1981.12,2076.3 1972.34,2076.3C1964.52,2076.3 1957.92,2074.65 1952.49,2071.65C1948.41,2069.4 1945.05,2066.6 1942.37,2063.27L1942.37,2064.1C1942.37,2069.57 1937.93,2074 1932.47,2074L1911.61,2074C1906.14,2074 1901.71,2069.57 1901.71,2064.1L1901.71,2010.65C1900.7,2010.66 1899.68,2010.52 1898.7,2010.21C1897.46,2009.82 1896.01,2009.78 1894.37,2009.9C1892.64,2010.03 1891.06,2010.39 1889.66,2011.06C1889.61,2011.09 1889.56,2011.11 1889.51,2011.14C1888.33,2011.67 1887.32,2012.37 1886.51,2013.26C1885.71,2014.15 1885.12,2015.22 1884.7,2016.43C1884.16,2018.01 1883.93,2019.79 1883.93,2021.77L1883.93,2064.1C1883.93,2069.57 1879.5,2074 1874.03,2074L1853.02,2074C1847.55,2074 1843.12,2069.57 1843.12,2064.1L1843.12,2010.55C1842.62,2010.47 1842.13,2010.36 1841.64,2010.21C1840.4,2009.82 1838.96,2009.78 1837.32,2009.9C1835.58,2010.03 1834.01,2010.39 1832.61,2011.06C1832.56,2011.09 1832.5,2011.11 1832.45,2011.14C1831.28,2011.67 1830.27,2012.37 1829.46,2013.26C1828.65,2014.15 1828.06,2015.22 1827.65,2016.43C1827.1,2018.01 1826.88,2019.79 1826.88,2021.77L1826.88,2064.1C1826.88,2069.57 1822.45,2074 1816.98,2074L1795.97,2074C1790.5,2074 1786.07,2069.57 1786.07,2064.1L1786.07,2058.51C1782.87,2062.42 1779.06,2065.75 1774.63,2068.51C1766.31,2073.7 1757.22,2076.3 1747.35,2076.3C1737.01,2076.3 1727.92,2073.99 1720.05,2069.53C1719.7,2069.34 1719.36,2069.14 1719.02,2068.94C1717.28,2072.04 1713.99,2074 1710.39,2074L1684.01,2074C1681.15,2074 1678.43,2072.76 1676.56,2070.62L1649.89,2040.14L1649.89,2064.1C1649.89,2069.57 1645.46,2074 1639.99,2074L1619.13,2074C1613.66,2074 1609.23,2069.57 1609.23,2064.1L1609.23,1980.73Z" style="fill:white;"/>
            </g>
            <g transform="matrix(0.304381,0,0,0.304381,1265.15,2662.62)">
                <path d="M1500.34,1994.06C1494.42,1991.57 1488.7,1988.37 1483.29,1984.43C1477.87,1980.5 1473.06,1976.05 1468.86,1971.19C1469.4,1964.8 1470.68,1958.36 1472.75,1952C1474.82,1945.64 1477.56,1939.68 1480.88,1934.19C1487.13,1932.73 1493.65,1931.95 1500.34,1931.95C1507.03,1931.95 1513.54,1932.73 1519.79,1934.19C1523.11,1939.68 1525.86,1945.64 1527.93,1952C1529.99,1958.36 1531.27,1964.8 1531.81,1971.19C1527.62,1976.05 1522.8,1980.5 1517.39,1984.43C1511.98,1988.37 1506.25,1991.57 1500.34,1994.06Z" style="fill:rgb(195,118,0);"/>
            </g>
            <g transform="matrix(0.304381,0,0,0.304381,1265.15,2663.34)">
                <path d="M1480.88,1931.81C1477.56,1937.3 1474.82,1943.26 1472.75,1949.62C1470.68,1955.98 1469.4,1962.42 1468.86,1968.81C1462.28,1961.19 1457.22,1952.59 1453.75,1943.45C1461.93,1938.09 1471.08,1934.1 1480.88,1931.81ZM1468.86,1968.81C1473.06,1973.67 1477.87,1978.12 1483.29,1982.05C1488.7,1985.99 1494.42,1989.19 1500.34,1991.68C1491.06,1995.59 1481.31,1997.74 1471.55,1998.21C1468.98,1988.78 1468.01,1978.84 1468.86,1968.81ZM1500.34,1991.68C1506.25,1989.19 1511.98,1985.99 1517.39,1982.05C1522.8,1978.12 1527.62,1973.67 1531.81,1968.81C1532.66,1978.84 1531.7,1988.78 1529.13,1998.21C1519.37,1997.74 1509.62,1995.59 1500.34,1991.68ZM1531.81,1968.81C1531.27,1962.42 1529.99,1955.98 1527.93,1949.62C1525.86,1943.26 1523.11,1937.3 1519.79,1931.81C1529.59,1934.1 1538.75,1938.09 1546.92,1943.45C1543.46,1952.59 1538.39,1961.19 1531.81,1968.81ZM1519.79,1931.81C1513.54,1930.35 1507.03,1929.58 1500.34,1929.58C1493.65,1929.58 1487.13,1930.35 1480.88,1931.81C1486.1,1923.2 1492.72,1915.72 1500.34,1909.6C1507.96,1915.72 1514.58,1923.2 1519.79,1931.81Z" style="fill:rgb(227,164,0);"/>
            </g>
            <g transform="matrix(0.304381,0,0,0.304381,1265.15,2662.62)">
                <path d="M1453.75,1945.83C1457.22,1954.97 1462.28,1963.57 1468.86,1971.19C1468.01,1981.22 1468.98,1991.16 1471.55,2000.59C1453.73,2001.46 1435.85,1996.73 1420.7,1986.84C1427.15,1969.93 1438.83,1955.6 1453.75,1945.83ZM1471.55,2000.59C1481.31,2000.12 1491.06,1997.97 1500.34,1994.06C1509.62,1997.97 1519.37,2000.12 1529.13,2000.59C1524.45,2017.81 1514.42,2033.34 1500.34,2044.7C1486.25,2033.34 1476.23,2017.81 1471.55,2000.59ZM1529.13,2000.59C1531.7,1991.16 1532.66,1981.22 1531.81,1971.19C1538.39,1963.57 1543.46,1954.97 1546.92,1945.83C1561.85,1955.6 1573.53,1969.93 1579.97,1986.84C1564.82,1996.73 1546.95,2001.46 1529.13,2000.59ZM1546.92,1945.83C1538.75,1940.47 1529.59,1936.48 1519.79,1934.19C1514.58,1925.58 1507.96,1918.1 1500.34,1911.98C1514.25,1900.81 1531.49,1894.13 1549.55,1893.22C1554.28,1910.69 1553.25,1929.15 1546.92,1945.83ZM1500.34,1911.98C1492.72,1918.1 1486.1,1925.58 1480.88,1934.19C1471.08,1936.48 1461.93,1940.47 1453.75,1945.83C1447.42,1929.15 1446.4,1910.69 1451.12,1893.22C1469.19,1894.13 1486.43,1900.81 1500.34,1911.98Z" style="fill:rgb(241,194,114);"/>
            </g>
            <g transform="matrix(0.304381,0,1.68966e-17,0.304381,1265.15,2662.62)">
                <path d="M1451.12,1893.22C1446.4,1910.69 1447.42,1929.15 1453.75,1945.83C1438.83,1955.6 1427.15,1969.93 1420.7,1986.84C1412.26,1981.33 1404.66,1974.22 1398.39,1965.59C1392.27,1957.15 1387.72,1941.98 1386.49,1923.97C1398.07,1910.13 1410.67,1900.52 1420.58,1897.3C1430.73,1894.01 1441.05,1892.72 1451.12,1893.22ZM1420.7,1986.84C1435.85,1996.73 1453.73,2001.46 1471.55,2000.59C1476.23,2017.81 1486.25,2033.34 1500.34,2044.7C1492.49,2051.02 1483.38,2056.05 1473.23,2059.35C1463.32,2062.57 1447.48,2062.2 1429.98,2057.81C1420.39,2042.51 1415.14,2027.57 1415.14,2017.15C1415.14,2006.48 1417.11,1996.26 1420.7,1986.84ZM1500.34,2044.7C1514.42,2033.34 1524.45,2017.81 1529.13,2000.59C1546.95,2001.46 1564.82,1996.73 1579.97,1986.84C1583.56,1996.26 1585.53,2006.48 1585.53,2017.15C1585.53,2027.57 1580.29,2042.51 1570.7,2057.81C1553.19,2062.2 1537.36,2062.57 1527.44,2059.35C1517.3,2056.05 1508.18,2051.02 1500.34,2044.7ZM1579.97,1986.84C1573.53,1969.93 1561.85,1955.6 1546.92,1945.83C1553.25,1929.15 1554.28,1910.69 1549.55,1893.22C1559.62,1892.72 1569.95,1894.01 1580.1,1897.3C1590.01,1900.52 1602.6,1910.13 1614.18,1923.97C1612.95,1941.98 1608.41,1957.15 1602.28,1965.59C1596.01,1974.22 1588.41,1981.33 1579.97,1986.84ZM1549.55,1893.22C1531.49,1894.13 1514.25,1900.81 1500.34,1911.98C1486.43,1900.81 1469.19,1894.13 1451.12,1893.22C1453.75,1883.49 1458.16,1874.07 1464.44,1865.43C1470.57,1857 1483.59,1848 1500.34,1841.26C1517.08,1848 1530.11,1857 1536.24,1865.43C1542.51,1874.07 1546.92,1883.49 1549.55,1893.22Z" style="fill:rgb(255,207,48);"/>
            </g>
            <g transform="matrix(0.304381,0,0,0.304381,1265.15,2662.62)">
                <path d="M1414.76,1988.77C1407.12,1983.29 1400.21,1976.51 1394.39,1968.49C1387.88,1959.53 1382.86,1943.45 1381.56,1924.31C1381.47,1923.04 1381.88,1921.78 1382.7,1920.8C1395.01,1906.08 1408.51,1896.02 1419.05,1892.6C1428.48,1889.53 1438.05,1888.11 1447.45,1888.17C1450.3,1879.21 1454.61,1870.55 1460.43,1862.53C1466.95,1853.56 1480.69,1843.83 1498.49,1836.67C1499.68,1836.19 1501,1836.19 1502.18,1836.67C1519.99,1843.83 1533.73,1853.56 1540.24,1862.53C1546.07,1870.55 1550.38,1879.21 1553.23,1888.17C1562.63,1888.11 1572.2,1889.53 1581.63,1892.6C1592.16,1896.02 1605.67,1906.08 1617.98,1920.8C1618.8,1921.78 1619.2,1923.04 1619.12,1924.31C1617.81,1943.45 1612.8,1959.53 1606.29,1968.49C1600.46,1976.51 1593.55,1983.29 1585.91,1988.77C1588.87,1997.69 1590.48,2007.24 1590.48,2017.15C1590.48,2028.23 1585.08,2044.18 1574.89,2060.43C1574.21,2061.52 1573.14,2062.29 1571.9,2062.61C1553.29,2067.28 1536.45,2067.48 1525.92,2064.06C1516.49,2060.99 1507.91,2056.52 1500.34,2050.94C1492.77,2056.52 1484.19,2060.99 1474.76,2064.06C1464.22,2067.48 1447.38,2067.28 1428.77,2062.61C1427.53,2062.29 1426.46,2061.52 1425.79,2060.43C1415.59,2044.18 1410.2,2028.23 1410.2,2017.15C1410.2,2007.24 1411.8,1997.69 1414.76,1988.77ZM1444.91,1898.09C1437.34,1898.28 1429.67,1899.55 1422.11,1902.01C1413.19,1904.91 1402.06,1913.46 1391.58,1925.63C1392.91,1941.63 1396.88,1955.09 1402.39,1962.68C1407.07,1969.11 1412.53,1974.65 1418.54,1979.25C1425.12,1965.09 1435.26,1952.92 1447.82,1943.9C1442.96,1929.22 1441.91,1913.41 1444.91,1898.09ZM1508.22,2044.41C1514.46,2048.71 1521.41,2052.18 1528.98,2054.64C1537.89,2057.54 1551.92,2057.16 1567.55,2053.48C1575.88,2039.75 1580.58,2026.53 1580.58,2017.15C1580.58,2009.19 1579.42,2001.51 1577.26,1994.25C1563.62,2001.84 1548.26,2005.72 1532.8,2005.64C1528.1,2020.37 1519.66,2033.78 1508.22,2044.41ZM1484.06,1938.56C1481.4,1943.22 1479.18,1948.23 1477.45,1953.53C1475.73,1958.83 1474.59,1964.19 1474,1969.52C1477.61,1973.49 1481.68,1977.15 1486.19,1980.43C1490.71,1983.71 1495.45,1986.45 1500.34,1988.66C1505.23,1986.45 1509.97,1983.71 1514.48,1980.43C1518.99,1977.15 1523.06,1973.49 1526.68,1969.52C1526.08,1964.19 1524.94,1958.83 1523.22,1953.53C1521.5,1948.23 1519.27,1943.22 1516.62,1938.56C1511.36,1937.47 1505.91,1936.9 1500.34,1936.9C1494.76,1936.9 1489.32,1937.47 1484.06,1938.56ZM1545.74,1898.47C1532.21,1899.85 1519.31,1904.65 1508.24,1912.27C1513.81,1917.42 1518.76,1923.32 1522.93,1929.87C1530.45,1931.81 1537.59,1934.7 1544.21,1938.4C1548.03,1925.52 1548.61,1911.76 1545.74,1898.47ZM1471.09,1942.41C1467.21,1943.93 1463.47,1945.75 1459.91,1947.83C1461.57,1951.61 1463.52,1955.27 1465.77,1958.78C1466.39,1956.01 1467.14,1953.23 1468.04,1950.47C1468.94,1947.71 1469.96,1945.02 1471.09,1942.41ZM1423.41,1994.25C1421.25,2001.51 1420.09,2009.19 1420.09,2017.15C1420.09,2026.53 1424.79,2039.75 1433.12,2053.48C1448.75,2057.16 1462.78,2057.54 1471.7,2054.64C1479.27,2052.18 1486.22,2048.71 1492.45,2044.41C1481.02,2033.78 1472.58,2020.37 1467.88,2005.64C1452.42,2005.72 1437.06,2001.84 1423.41,1994.25ZM1582.14,1979.25C1588.15,1974.65 1593.61,1969.11 1598.28,1962.68C1603.79,1955.09 1607.77,1941.63 1609.09,1925.63C1598.62,1913.46 1587.49,1904.91 1578.57,1902.01C1571,1899.55 1563.34,1898.28 1555.77,1898.09C1558.77,1913.41 1557.71,1929.22 1552.86,1943.9C1565.41,1952.92 1575.56,1965.09 1582.14,1979.25ZM1573.8,1984.83C1568.31,1972.39 1559.76,1961.6 1549.09,1953.43C1545.91,1960.32 1541.83,1966.85 1536.89,1972.84C1537.37,1980.59 1536.83,1988.27 1535.35,1995.72C1548.79,1995.37 1562.05,1991.67 1573.8,1984.83ZM1500.34,1918.46C1497.26,1921.2 1494.38,1924.19 1491.73,1927.41C1494.56,1927.14 1497.43,1927.01 1500.34,1927.01C1503.24,1927.01 1506.11,1927.14 1508.95,1927.41C1506.3,1924.19 1503.42,1921.2 1500.34,1918.46ZM1451.58,1953.43C1440.92,1961.6 1432.36,1972.39 1426.88,1984.83C1438.63,1991.67 1451.89,1995.37 1465.32,1995.72C1463.85,1988.27 1463.31,1980.59 1463.78,1972.84C1458.84,1966.85 1454.77,1960.32 1451.58,1953.43ZM1500.34,2038.21C1510.47,2029.14 1518.09,2017.67 1522.57,2005.01C1515.04,2004.11 1507.56,2002.25 1500.34,1999.4C1493.11,2002.25 1485.64,2004.11 1478.11,2005.01C1482.59,2017.67 1490.2,2029.14 1500.34,2038.21ZM1540.76,1947.83C1537.2,1945.75 1533.47,1943.93 1529.59,1942.41C1530.72,1945.02 1531.74,1947.71 1532.63,1950.47C1533.53,1953.23 1534.29,1956.01 1534.91,1958.78C1537.15,1955.27 1539.11,1951.61 1540.76,1947.83ZM1473.65,1983.05C1473.9,1987.21 1474.47,1991.32 1475.35,1995.35C1479.46,1994.94 1483.55,1994.22 1487.58,1993.17C1485.13,1991.72 1482.73,1990.14 1480.38,1988.44C1478.03,1986.73 1475.79,1984.93 1473.65,1983.05ZM1543.01,1888.82C1540.49,1881.68 1536.91,1874.78 1532.23,1868.34C1526.72,1860.76 1515.15,1852.82 1500.34,1846.61C1485.53,1852.82 1473.95,1860.76 1468.44,1868.34C1463.77,1874.78 1460.19,1881.68 1457.67,1888.82C1473.17,1890.7 1487.88,1896.59 1500.34,1905.74C1512.8,1896.59 1527.51,1890.7 1543.01,1888.82ZM1454.93,1898.47C1452.06,1911.76 1452.64,1925.52 1456.46,1938.4C1463.09,1934.7 1470.23,1931.81 1477.74,1929.87C1481.91,1923.32 1486.87,1917.42 1492.44,1912.27C1481.37,1904.65 1468.46,1899.85 1454.93,1898.47ZM1525.32,1995.35C1526.2,1991.32 1526.78,1987.21 1527.02,1983.05C1524.89,1984.93 1522.65,1986.73 1520.3,1988.44C1517.95,1990.14 1515.54,1991.72 1513.09,1993.17C1517.13,1994.22 1521.22,1994.94 1525.32,1995.35ZM1619.13,2064.1L1619.13,1953.67L1639.99,1953.67L1639.99,2004.59L1682.01,1953.67L1707.47,1953.67L1661.31,2008.12L1710.39,2064.1L1684.01,2064.1L1639.99,2013.79L1639.99,2064.1L1619.13,2064.1ZM1726.7,2028.52C1727.35,2033.48 1728.91,2037.51 1731.36,2040.59C1734.71,2044.81 1739.63,2046.92 1746.12,2046.92C1750.21,2046.92 1753.71,2046.03 1756.63,2044.24C1759.54,2042.45 1761.77,2039.87 1763.3,2036.49L1784.16,2042.47C1781.04,2050.04 1776.12,2055.92 1769.39,2060.11C1762.67,2064.3 1755.32,2066.4 1747.35,2066.4C1738.86,2066.4 1731.38,2064.57 1724.92,2060.91C1718.45,2057.26 1713.39,2052.22 1709.73,2045.81C1706.08,2039.39 1704.25,2032.04 1704.25,2023.76C1704.25,2014.71 1706.04,2006.84 1709.62,2000.14C1713.2,1993.44 1718.13,1988.24 1724.42,1984.54C1730.71,1980.83 1737.94,1978.98 1746.12,1978.98C1754.81,1978.98 1762.2,1981.02 1768.28,1985.11C1774.37,1989.2 1778.87,1994.95 1781.78,2002.37C1784.69,2009.78 1785.72,2018.5 1784.85,2028.52L1726.7,2028.52ZM1763.75,2013.03C1763.14,2008.54 1761.96,2005.07 1760.19,2002.63C1757.51,1998.93 1753.12,1997.08 1747.04,1997.08C1739.93,1997.08 1734.71,1999.24 1731.36,2003.55C1729.44,2006.03 1728.07,2009.19 1727.25,2013.03L1763.75,2013.03ZM1814.37,1994.61C1815.06,1993.38 1815.83,1992.21 1816.67,1991.09C1818.46,1988.74 1820.66,1986.8 1823.27,1985.27C1825.26,1984.04 1827.43,1983.08 1829.79,1982.39C1832.14,1981.7 1834.57,1981.27 1837.07,1981.09C1839.58,1980.91 1842.08,1980.97 1844.59,1981.28L1844.59,2000.76C1842.29,2000.04 1839.61,1999.8 1836.57,2000.03C1833.53,2000.26 1830.78,2000.96 1828.33,2002.14C1825.87,2003.26 1823.8,2004.76 1822.12,2006.62C1820.43,2008.49 1819.15,2010.69 1818.28,2013.22C1817.41,2015.75 1816.98,2018.6 1816.98,2021.77L1816.98,2064.1L1795.97,2064.1L1795.97,1981.28L1814.37,1981.28L1814.37,1994.61ZM1871.42,1994.61C1872.11,1993.38 1872.88,1992.21 1873.73,1991.09C1875.52,1988.74 1877.71,1986.8 1880.32,1985.27C1882.32,1984.04 1884.49,1983.08 1886.84,1982.39C1889.19,1981.7 1891.62,1981.27 1894.12,1981.09C1896.63,1980.91 1899.13,1980.97 1901.64,1981.28L1901.64,2000.76C1899.34,2000.04 1896.67,1999.8 1893.63,2000.03C1890.58,2000.26 1887.84,2000.96 1885.38,2002.14C1882.93,2003.26 1880.86,2004.76 1879.17,2006.62C1877.48,2008.49 1876.2,2010.69 1875.34,2013.22C1874.47,2015.75 1874.03,2018.6 1874.03,2021.77L1874.03,2064.1L1853.02,2064.1L1853.02,1981.28L1871.42,1981.28L1871.42,1994.61ZM1911.61,1969.78L1911.61,1951.37L1932.47,1951.37L1932.47,1969.78L1911.61,1969.78ZM1911.61,2064.1L1911.61,1981.28L1932.47,1981.28L1932.47,2064.1L1911.61,2064.1ZM2000.56,2053.93C1997.27,2057.81 1993.78,2060.72 1990.1,2062.68C1985.42,2065.16 1979.5,2066.4 1972.34,2066.4C1966.41,2066.4 1961.39,2065.26 1957.28,2062.99C1953.16,2060.71 1950.04,2057.67 1947.92,2053.86C1945.8,2050.05 1944.74,2045.85 1944.74,2041.25C1944.74,2037.41 1945.33,2033.91 1946.5,2030.74C1947.68,2027.57 1949.58,2024.77 1952.21,2022.34C1954.85,2019.91 1958.39,2017.88 1962.84,2016.25C1965.9,2015.12 1969.56,2014.12 1973.8,2013.26C1978.04,2012.39 1982.85,2011.56 1988.22,2010.76C1991.38,2010.3 1994.72,2009.8 1998.25,2009.27C1997.86,2005.86 1996.74,2003.25 1994.89,2001.45C1992.54,1999.14 1988.6,1998 1983.08,1998C1980.01,1998 1976.82,1998.74 1973.49,2000.22C1970.17,2001.7 1967.85,2004.33 1966.52,2008.12L1947.65,2002.14C1949.75,1995.29 1953.68,1989.71 1959.46,1985.42C1965.24,1981.12 1973.11,1978.98 1983.08,1978.98C1990.39,1978.98 1996.88,1980.1 2002.56,1982.35C2008.23,1984.6 2012.53,1988.49 2015.44,1994.01C2017.08,1997.08 2018.05,2000.14 2018.36,2003.21C2018.66,2006.28 2018.82,2009.7 2018.82,2013.49L2018.82,2064.1L2000.56,2064.1L2000.56,2053.93ZM1998.07,2026.17C1994.63,2026.75 1991.68,2027.27 1989.21,2027.71C1985.38,2028.4 1982.29,2029.03 1979.93,2029.59C1977.58,2030.15 1975.51,2030.77 1973.72,2031.43C1971.68,2032.25 1970.03,2033.13 1968.78,2034.08C1967.53,2035.02 1966.61,2036.06 1966.02,2037.18C1965.43,2038.31 1965.13,2039.56 1965.13,2040.94C1965.13,2042.83 1965.61,2044.45 1966.55,2045.81C1967.5,2047.16 1968.84,2048.2 1970.58,2048.91C1972.32,2049.63 1974.39,2049.99 1976.79,2049.99C1980.63,2049.99 1983.86,2049.31 1986.49,2047.96C1989.12,2046.6 1991.22,2045.05 1992.78,2043.32C1994.34,2041.58 1995.4,2040.12 1995.96,2038.94C1997.04,2036.69 1997.66,2034.08 1997.84,2031.09C1997.95,2029.26 1998.03,2027.62 1998.07,2026.17Z"/>
            </g>
        </g>
    </g>
</svg>
